<svg xmlns="http://www.w3.org/2000/svg" viewBox="0 0 96 96" role="img" aria-label="Best Virtual Assistant Services logo">
  <rect width="96" height="96" rx="20" fill="#1C2423"/>
  <path d="M24 23h26c13 0 21 6 21 16 0 7-4 12-11 14 9 2 14 8 14 17 0 12-9 19-24 19H24V23zm14 12v13h11c5 0 8-2 8-7 0-4-3-6-8-6H38zm0 25v16h13c6 0 9-3 9-8s-3-8-10-8H38z" fill="#FBF8F1"/>
  <circle cx="73" cy="24" r="9" fill="#E7653F"/>
  <path d="m69 24 3 3 6-7" fill="none" stroke="#fff" stroke-width="3" stroke-linecap="round" stroke-linejoin="round"/>
</svg>
